<?xml version="1.0" encoding="UTF-8"?>
<svg version="1.1" xmlns="http://www.w3.org/2000/svg" width="512" height="512">
<path d="M0 0 C1.28140869 0.09249023 2.56281738 0.18498047 3.88305664 0.28027344 C29.24806574 2.19064772 54.19318465 5.95822149 79.0625 11.3125 C79.7210498 11.45345093 80.37959961 11.59440186 81.05810547 11.73962402 C120.11988168 20.12798139 158.39130621 31.390596 195.0625 47.3125 C194.7325 50.6125 194.4025 53.9125 194.0625 57.3125 C194.475 56.178125 194.8875 55.04375 195.3125 53.875 C197.0625 50.3125 197.0625 50.3125 198.8125 49.1875 C203.17581491 49.42990638 206.75378107 51.2082684 210.0625 54 C211.86364483 58.16514742 210.70695009 62.52859549 209.21289062 66.66430664 C208.14171252 69.14404377 206.99665754 71.57228542 205.8125 74 C205.42964844 74.82822266 205.04679687 75.65644531 204.65234375 76.50976562 C200.48723656 85.2091283 194.83150961 90.08320613 185.84667969 93.55517578 C170.26790915 98.20269492 154.24807075 101.05353985 138.3125 104.1875 C121.05319629 107.58715148 103.80365026 111.00653165 86.671875 115.0078125 C85.46654114 115.28060028 84.26120728 115.55338806 83.01934814 115.83444214 C81.35413116 116.23374435 81.35413116 116.23374435 79.65527344 116.64111328 C78.69087341 116.86807892 77.72647339 117.09504456 76.73284912 117.32888794 C73.61275516 118.47816165 71.5434347 120.1256539 69.0625 122.3125 C69.73665387 127.5709002 71.30515549 132.33888346 73.0625 137.3125 C65.94286544 138.37605035 58.87686229 138.55894792 51.6875 138.75 C17.97910304 139.81018897 17.97910304 139.81018897 -9.9375 157.3125 C-10.86425214 158.53975215 -11.76267155 159.78915519 -12.625 161.0625 C-14.89083707 164.24691966 -16.42850189 165.70025763 -19.9375 167.3125 C-20.5975 167.3125 -21.2575 167.3125 -21.9375 167.3125 C-21.9375 144.2125 -21.9375 121.1125 -21.9375 97.3125 C-36.4575 97.3125 -50.9775 97.3125 -65.9375 97.3125 C-66.5975 99.2925 -67.2575 101.2725 -67.9375 103.3125 C-68.85609993 105.12771825 -69.82434297 106.91851029 -70.8359375 108.68359375 C-71.39796875 109.67037109 -71.96 110.65714844 -72.5390625 111.67382812 C-73.12429687 112.68896484 -73.70953125 113.70410156 -74.3125 114.75 C-74.89 115.76126953 -75.4675 116.77253906 -76.0625 117.81445312 C-77.68275026 120.64989108 -79.30946712 123.4815259 -80.9375 126.3125 C-82.27223249 128.64503737 -83.60487183 130.97875954 -84.9375 133.3125 C-88.50425595 130.13385462 -90.62931824 126.5894034 -92.79296875 122.39453125 C-93.14007401 121.73668137 -93.48717926 121.07883148 -93.84480286 120.40104675 C-94.94517287 118.31260584 -96.03545007 116.21910293 -97.125 114.125 C-98.22717179 112.02124669 -99.33139877 109.91859639 -100.43733215 107.81681824 C-101.12328879 106.51164133 -101.80670433 105.20512519 -102.48735046 103.89717102 C-103.93371995 100.91253361 -103.93371995 100.91253361 -105.9375 98.3125 C-111.09385354 97.36914849 -116.06158647 97.17777805 -121.27734375 97.21484375 C-121.9583313 97.21585083 -122.63931885 97.21685791 -123.34094238 97.21789551 C-125.85231238 97.22307474 -128.36365812 97.23703542 -130.875 97.25 C-139.3209375 97.2809375 -139.3209375 97.2809375 -147.9375 97.3125 C-147.9375 109.1925 -147.9375 121.0725 -147.9375 133.3125 C-151.95983492 131.30133254 -152.95234859 130.29007169 -155.5 126.8125 C-172.44182611 105.25580718 -197.13806919 95.93805113 -223.69042969 92.64208984 C-247.67720365 90.20734211 -271.43931792 93.74651882 -294.5 100.359375 C-297.9375 101.3125 -297.9375 101.3125 -299.9375 101.3125 C-286.50162215 70.07754685 -221.94776916 42.97480445 -192.40576172 30.86474609 C-164.40895586 19.90039403 -135.69331682 13.22215794 -105.5625 12.9375 C-104.52730225 12.92348145 -103.49210449 12.90946289 -102.42553711 12.89501953 C-101.47300049 12.90130371 -100.52046387 12.90758789 -99.5390625 12.9140625 C-98.69682129 12.91744629 -97.85458008 12.92083008 -96.98681641 12.92431641 C-96.31054199 13.05241699 -95.63426758 13.18051758 -94.9375 13.3125 C-92.55264197 16.88978705 -92.22756306 20.10127189 -91.625 24.25 C-90.3925785 31.82619111 -88.41946057 38.4248958 -84.9375 45.3125 C-84.45667969 46.28445312 -83.97585937 47.25640625 -83.48046875 48.2578125 C-74.29795334 65.37169767 -59.05293475 77.66855877 -41.9375 86.3125 C-39.6800803 87.03976124 -39.6800803 87.03976124 -37.9375 87.3125 C-38.74832031 86.83941406 -39.55914062 86.36632812 -40.39453125 85.87890625 C-56.42135814 76.30758821 -69.61497612 64.71281227 -78.9375 48.3125 C-79.47246094 47.38953125 -80.00742188 46.4665625 -80.55859375 45.515625 C-83.62039158 39.86542451 -85.72348032 34.26205702 -87.3125 28.0625 C-87.48031982 27.41321533 -87.64813965 26.76393066 -87.82104492 26.0949707 C-89.4669642 19.09825934 -89.83136069 12.02099523 -86.9375 5.3125 C-79.17543412 -0.50904941 -68.06870087 1.09561908 -59.0078125 2.375 C-46.75922804 4.4238903 -34.69736373 8.39254542 -22.9375 12.3125 C-28.5475 9.6725 -34.1575 7.0325 -39.9375 4.3125 C-38.9375 2.3125 -38.9375 2.3125 -37.1796875 1.71484375 C-24.81809363 -0.71259795 -12.5300679 -0.93986189 0 0 Z M-72.9375 19.3125 C-74.30040958 20.47259906 -74.30040958 20.47259906 -74.375 23.625 C-74.13674799 38.42309708 -59.44630984 51.40281037 -49.5703125 61.015625 C-44.80795804 65.4788944 -39.55874986 68.99740393 -33.9375 72.3125 C-33.9375 68.47485973 -35.20285335 67.19763915 -37.4375 64.125 C-38.41203125 62.77341797 -38.41203125 62.77341797 -39.40625 61.39453125 C-39.9115625 60.70746094 -40.416875 60.02039063 -40.9375 59.3125 C-38.6275 59.6425 -36.3175 59.9725 -33.9375 60.3125 C-37.20470791 55.92355071 -40.48648478 51.55990335 -43.9375 47.3125 C-39.9882432 47.86355909 -36.58829826 48.70185371 -32.9375 50.3125 C-34.27238128 46.71858886 -35.89772723 43.55759304 -37.9375 40.3125 C-34.6375 41.3025 -31.3375 42.2925 -27.9375 43.3125 C-34.4648009 34.30987001 -45.31515306 29.34454014 -55.25 24.875 C-55.97783691 24.5452417 -56.70567383 24.2154834 -57.45556641 23.87573242 C-62.43360784 21.72015825 -67.5268029 19.97186542 -72.9375 19.3125 Z M43.0625 33.3125 C45.07034294 35.62455404 45.07034294 35.62455404 48.75 36.5 C53.03891695 38.00963683 55.29810225 40.37981314 58.33984375 43.6640625 C65.45683503 50.47442604 76.21090272 49.49513284 85.3125 49.5 C87.09720703 49.51836914 87.09720703 49.51836914 88.91796875 49.53710938 C95.61575745 49.54821068 101.62225924 49.21651309 108.0625 47.3125 C108.7225 46.6525 109.3825 45.9925 110.0625 45.3125 C99.92368707 42.46145497 89.76618034 40.08225396 79.42895508 38.07495117 C77.12799792 37.62558548 74.83074856 37.15981516 72.53320312 36.69335938 C62.70490141 34.74531205 53.07448272 33.6699794 43.0625 33.3125 Z M92.53515625 92.3515625 C91.66673096 92.59970703 90.79830566 92.84785156 89.90356445 93.10351562 C88.98663818 93.37873047 88.06971191 93.65394531 87.125 93.9375 C86.18293701 94.21529297 85.24087402 94.49308594 84.27026367 94.77929688 C64.7325579 99.84776166 64.7325579 99.84776166 50.0625 112.3125 C49.80273339 114.54584591 49.80273339 114.54584591 50.1875 116.8125 C50.27257812 117.5653125 50.35765625 118.318125 50.4453125 119.09375 C51.16628155 121.68558811 52.34307812 123.26778208 54.0625 125.3125 C54.09988281 124.57644531 54.13726562 123.84039062 54.17578125 123.08203125 C54.24152344 122.10621094 54.30726563 121.13039063 54.375 120.125 C54.43300781 119.16207031 54.49101562 118.19914062 54.55078125 117.20703125 C55.14790876 113.82938634 55.94054803 112.01276173 58.0625 109.3125 C60.24608399 107.83678115 62.21093504 106.69393594 64.5625 105.5625 C65.23087891 105.2325 65.89925781 104.9025 66.58789062 104.5625 C77.61752248 99.37208501 89.45623198 95.96047538 101.0625 92.3125 C97.80564168 91.24092739 95.80887092 91.40339849 92.53515625 92.3515625 Z M54.0625 125.3125 C55.0625 127.3125 55.0625 127.3125 55.0625 127.3125 Z " fill="#840000" transform="translate(300.9375,156.6875)"/>
<path d="M0 0 C0.66 0 1.32 0 2 0 C3.43286133 1.90844727 3.43286133 1.90844727 5.08203125 4.56640625 C5.68466797 5.52740234 6.28730469 6.48839844 6.90820312 7.47851562 C7.53662109 8.49623047 8.16503906 9.51394531 8.8125 10.5625 C12.71891922 16.83644601 16.61633257 23.04656214 21 29 C23.23113437 25.66797993 25.45954307 22.33414534 27.6875 19 C28.62625977 17.59814453 28.62625977 17.59814453 29.58398438 16.16796875 C32.41665041 11.92638505 35.20663362 7.68591302 37.83203125 3.3125 C38.54746094 2.219375 39.26289063 1.12625 40 0 C40.66 0 41.32 0 42 0 C42 18.15 42 36.3 42 55 C37.51234309 57.24382845 34.16508596 57.25757461 29.296875 57.1953125 C28.5538916 57.19329834 27.8109082 57.19128418 27.04541016 57.18920898 C24.28021029 57.17877533 21.5150987 57.15085273 18.75 57.125 C12.5625 57.08375 6.375 57.0425 0 57 C0 38.19 0 19.38 0 0 Z " fill="#840000" transform="translate(195,299)"/>
</svg>
